<?xml version="1.0" standalone="no"?>
<!DOCTYPE svg PUBLIC "-//W3C//DTD SVG 20010904//EN"
 "http://www.w3.org/TR/2001/REC-SVG-20010904/DTD/svg10.dtd">
<svg version="1.0" xmlns="http://www.w3.org/2000/svg"
 width="260.000000pt" height="260.000000pt" viewBox="0 0 260.000000 260.000000"
 preserveAspectRatio="xMidYMid meet">
<metadata>
Created by potrace 1.11, written by Peter Selinger 2001-2013
</metadata>
<g transform="translate(0.000000,260.000000) scale(0.100000,-0.100000)"
fill="#000000" stroke="none">
<path d="M1145 2569 c-552 -70 -991 -484 -1102 -1037 -24 -118 -24 -356 0
-474 63 -312 228 -584 470 -771 131 -101 302 -195 334 -182 8 2 11 1 8 -5 -3
-5 26 -18 65 -30 239 -71 479 -76 715 -15 441 115 795 470 911 914 30 117 42
207 26 197 -7 -4 -12 -3 -12 2 0 6 7 12 15 16 33 12 11 297 -36 464 -169 602
-770 999 -1394 921z m75 -39 c0 -5 -7 -10 -15 -10 -8 0 -15 5 -15 10 0 6 7 10
15 10 8 0 15 -4 15 -10z m365 -30 c3 -5 2 -10 -4 -10 -5 0 -13 5 -16 10 -3 6
-2 10 4 10 5 0 13 -4 16 -10z m-595 -74 c0 -11 -19 -15 -25 -6 -3 5 1 10 9 10
9 0 16 -2 16 -4z m340 -16 c0 -5 -4 -10 -10 -10 -5 0 -10 5 -10 10 0 6 5 10
10 10 6 0 10 -4 10 -10z m589 -81 c-22 -14 -33 -10 -19 6 7 8 17 12 22 9 6 -4
5 -10 -3 -15z m-51 -31 c-6 -18 -28 -21 -28 -4 0 9 7 16 16 16 9 0 14 -5 12
-12z m-458 -17 c0 -5 -8 -17 -17 -27 -18 -18 -30 -6 -19 21 6 16 36 21 36 6z
m-110 -61 c0 -5 -5 -10 -11 -10 -5 0 -7 5 -4 10 3 6 8 10 11 10 2 0 4 -4 4
-10z m-355 -10 c3 -5 -1 -10 -10 -10 -9 0 -13 5 -10 10 3 6 8 10 10 10 2 0 7
-4 10 -10z m986 -20 c-25 -22 -41 -26 -41 -10 0 11 30 29 50 29 10 0 8 -6 -9
-19z m-1431 0 c0 -5 -4 -10 -10 -10 -5 0 -10 5 -10 10 0 6 5 10 10 10 6 0 10
-4 10 -10z m1719 -62 c-6 -11 -4 -18 7 -22 9 -3 18 2 22 14 7 18 11 16 44 -23
58 -70 117 -167 111 -183 -3 -8 5 -23 19 -33 29 -23 104 -201 95 -225 -4 -9
-16 -16 -28 -16 -12 0 -23 -8 -26 -20 -4 -15 -11 -18 -34 -13 -24 5 -29 2 -29
-15 0 -15 -8 -21 -32 -25 -40 -6 -41 -6 -32 27 4 17 13 26 26 26 15 0 19 6 16
28 -3 24 -7 27 -35 25 -25 -2 -31 0 -27 12 4 8 10 15 15 15 5 0 9 5 9 11 0 5
-4 7 -10 4 -5 -3 -18 -2 -27 3 -30 15 -75 24 -69 13 9 -13 -29 -24 -56 -16
-24 7 -68 51 -68 67 0 5 16 18 35 29 19 12 35 25 35 30 0 5 13 9 29 9 28 0 28
1 20 43 -4 24 -4 43 2 45 18 7 -3 22 -30 22 -54 0 -90 11 -84 27 3 7 2 13 -3
12 -21 -4 -28 2 -14 12 11 8 12 12 2 16 -6 2 -9 9 -6 15 3 5 -2 15 -12 22 -18
13 -12 36 9 36 7 0 20 10 29 23 13 17 27 22 62 22 38 0 43 -2 35 -17z m-1234
2 c3 -5 1 -10 -4 -10 -6 0 -11 5 -11 10 0 6 2 10 4 10 3 0 8 -4 11 -10z m725
6 c0 -3 -4 -8 -10 -11 -5 -3 -10 -1 -10 4 0 6 5 11 10 11 6 0 10 -2 10 -4z
m-1298 -41 c0 -5 -5 -11 -11 -13 -6 -2 -11 4 -11 13 0 9 5 15 11 13 6 -2 11
-8 11 -13z m1318 -5 c0 -5 -4 -10 -10 -10 -5 0 -10 5 -10 10 0 6 5 10 10 10 6
0 10 -4 10 -10z m65 0 c3 -5 1 -10 -4 -10 -6 0 -11 5 -11 10 0 6 2 10 4 10 3
0 8 -4 11 -10z m-1015 -70 c0 -5 -4 -10 -10 -10 -5 0 -10 5 -10 10 0 6 5 10
10 10 6 0 10 -4 10 -10z m970 0 c0 -5 -4 -10 -10 -10 -5 0 -10 5 -10 10 0 6 5
10 10 10 6 0 10 -4 10 -10z m-38 -35 c-2 -14 -10 -25 -17 -25 -7 0 -15 -7 -19
-15 -7 -20 -35 -19 -43 1 -7 18 13 35 32 28 7 -3 15 4 18 15 8 31 35 27 29 -4z
m-992 -5 c0 -5 -5 -10 -11 -10 -5 0 -7 5 -4 10 3 6 8 10 11 10 2 0 4 -4 4 -10z
m195 -10 c3 -5 1 -10 -4 -10 -6 0 -11 5 -11 10 0 6 2 10 4 10 3 0 8 -4 11 -10z
m815 -55 c0 -18 -17 -28 -36 -21 -11 4 -12 10 -4 25 11 22 40 18 40 -4z m248
14 c-2 -6 -8 -10 -13 -10 -5 0 -11 4 -13 10 -2 6 4 11 13 11 9 0 15 -5 13 -11z
m-328 -29 c0 -5 -4 -10 -10 -10 -5 0 -10 5 -10 10 0 6 5 10 10 10 6 0 10 -4
10 -10z m-400 -14 c0 -3 -4 -8 -10 -11 -5 -3 -10 -1 -10 4 0 6 5 11 10 11 6 0
10 -2 10 -4z m-950 -10 c0 -11 -19 -15 -25 -6 -3 5 1 10 9 10 9 0 16 -2 16 -4z
m-110 -66 c0 -5 -4 -10 -10 -10 -5 0 -10 5 -10 10 0 6 5 10 10 10 6 0 10 -4
10 -10z m1650 0 c8 -5 12 -12 9 -15 -8 -8 -39 5 -39 16 0 11 11 11 30 -1z
m-670 -20 c11 17 50 -5 50 -29 0 -34 -55 -43 -65 -11 -4 11 -10 18 -15 15 -4
-3 -15 -2 -24 1 -13 5 -14 10 -5 20 8 10 16 11 31 3 15 -8 22 -8 28 1z m260 6
c0 -2 -8 -10 -17 -17 -16 -13 -17 -12 -4 4 13 16 21 21 21 13z m-360 -16 c0
-5 -4 -10 -10 -10 -5 0 -10 5 -10 10 0 6 5 10 10 10 6 0 10 -4 10 -10z m320
-24 c0 -3 -4 -8 -10 -11 -5 -3 -10 -1 -10 4 0 6 5 11 10 11 6 0 10 -2 10 -4z
m540 -5 c0 -13 -28 -22 -35 -11 -3 4 1 11 7 13 20 8 28 8 28 -2z m-900 -41 c0
-5 -4 -10 -10 -10 -5 0 -10 5 -10 10 0 6 5 10 10 10 6 0 10 -4 10 -10z m1045
-14 c18 -13 18 -18 7 -48 -17 -49 -15 -68 8 -68 11 0 20 6 20 14 0 16 24 38
32 30 3 -3 -5 -17 -19 -32 -14 -15 -20 -28 -13 -30 6 -2 0 -14 -15 -28 -26
-24 -55 -23 -55 2 0 8 -9 14 -19 14 -35 0 -65 57 -62 116 2 35 81 56 116 30z
m-1485 -37 c0 -5 -4 -9 -10 -9 -5 0 -10 7 -10 16 0 8 5 12 10 9 6 -3 10 -10
10 -16z m-380 1 c0 -5 -4 -10 -9 -10 -6 0 -13 5 -16 10 -3 6 1 10 9 10 9 0 16
-4 16 -10z m1910 -15 c0 -8 -4 -15 -10 -15 -5 0 -10 7 -10 15 0 8 5 15 10 15
6 0 10 -7 10 -15z m-1956 -35 c17 -29 42 -42 33 -17 -2 6 0 19 4 29 8 14 14
15 46 5 43 -13 56 -26 42 -43 -17 -21 56 -29 101 -11 79 30 120 30 120 -2 0
-9 6 -23 12 -29 10 -10 8 -14 -10 -18 -12 -4 -22 -10 -22 -15 0 -15 12 -10 36
12 13 12 33 23 46 24 13 1 27 3 32 4 18 2 -14 25 -36 26 -32 0 -32 18 0 36 23
13 32 14 45 4 22 -16 22 -26 0 -19 -15 5 -16 4 -3 -5 12 -8 19 -5 33 14 17 23
45 37 33 16 -3 -5 1 -14 10 -21 17 -15 13 -44 -13 -120 -17 -48 -41 -83 -28
-41 5 17 4 22 -6 19 -7 -2 -13 -12 -15 -22 -4 -31 -15 -32 -38 -3 -21 26 -84
68 -71 47 3 -4 -11 -4 -30 1 -19 6 -40 7 -45 4 -14 -9 11 -44 27 -38 7 3 13 0
13 -6 0 -6 -3 -11 -8 -11 -4 0 -8 -18 -8 -40 -1 -22 3 -40 8 -40 5 0 6 5 3 10
-3 6 0 10 7 10 7 1 40 7 73 15 60 14 60 14 35 -5 -18 -13 -26 -15 -29 -7 -3 7
-10 -6 -16 -28 -11 -36 -16 -40 -52 -47 -54 -9 -89 -44 -90 -92 -1 -47 -7 -52
-39 -37 -30 13 -64 6 -64 -14 0 -23 -12 -24 -74 -5 -39 13 -66 16 -81 10 -13
-5 -26 -5 -32 1 -14 14 -41 1 -49 -23 -23 -74 -42 133 -25 283 16 139 34 203
63 216 30 13 40 9 62 -27z m746 15 c0 -8 -4 -15 -9 -15 -5 0 -12 -13 -16 -30
-6 -26 -8 -28 -21 -15 -9 8 -20 15 -25 15 -5 0 -9 5 -9 10 0 6 9 10 21 10 14
0 19 5 16 14 -7 18 1 26 25 26 10 0 18 -7 18 -15z m-520 -15 c0 -5 -9 -14 -19
-19 -16 -9 -18 -8 -14 9 5 20 33 29 33 10z m-50 -9 c0 -13 -26 -32 -33 -24 -8
7 11 33 24 33 5 0 9 -4 9 -9z m856 -100 c-8 -47 -23 -76 -71 -132 -38 -45 -45
-59 -41 -83 5 -24 3 -27 -12 -21 -9 4 -30 10 -47 12 -27 4 -28 3 -10 -8 11 -7
24 -19 29 -27 6 -11 10 -11 16 -2 4 7 10 8 13 3 4 -6 0 -18 -7 -29 -12 -16
-16 -16 -31 -4 -15 12 -16 11 -10 -13 6 -24 5 -26 -11 -20 -18 7 -18 6 -1 -11
19 -19 22 -36 8 -36 -18 0 -49 50 -44 70 4 15 2 19 -10 15 -8 -4 -17 1 -21 11
-5 13 -9 14 -21 4 -19 -16 -19 -35 1 -55 14 -13 19 -14 25 -3 7 11 9 10 9 -1
0 -8 8 -20 18 -28 16 -14 16 -14 -4 -10 -13 3 -25 -3 -33 -15 -9 -15 -14 -16
-24 -6 -7 7 -16 21 -20 31 -10 26 -25 20 -32 -13 -4 -16 -11 -30 -16 -30 -5 0
-9 -7 -9 -16 0 -8 -11 -35 -25 -58 l-25 -43 25 5 c18 3 24 9 21 19 -7 17 10
53 24 53 6 0 10 -8 10 -17 0 -14 2 -15 13 -4 10 11 10 14 0 18 -15 5 -18 33
-4 33 6 0 13 -5 17 -11 3 -6 15 -8 26 -6 15 4 18 1 13 -13 -3 -10 -1 -21 5
-25 16 -10 12 -38 -5 -31 -18 7 -20 -10 -2 -17 9 -4 8 -8 -3 -16 -19 -13 -43
-14 -35 -2 3 5 1 12 -5 16 -5 3 -12 -6 -16 -20 -3 -14 -10 -25 -14 -25 -5 0
-10 -10 -12 -22 -2 -15 -9 -22 -21 -22 -18 2 -19 -3 -22 -73 0 -24 -8 -50 -18
-61 -22 -24 -21 -32 4 -32 11 0 17 -4 14 -10 -11 -17 7 -11 21 8 12 15 13 14
14 -13 0 -18 7 -35 18 -42 16 -9 18 -22 16 -73 -2 -49 0 -59 11 -50 17 14 48
-15 40 -39 -12 -40 -22 -111 -14 -111 5 0 6 -7 3 -15 -4 -8 -11 -15 -16 -15
-6 0 -8 7 -4 15 3 8 1 15 -4 15 -6 0 -6 10 0 26 8 19 7 25 -2 22 -18 -6 -38
17 -38 43 0 19 -2 20 -17 8 -15 -13 -16 -11 -10 19 4 17 2 32 -3 32 -5 0 -12
-16 -16 -35 -4 -24 -12 -35 -24 -35 -17 0 -36 -28 -25 -38 2 -3 7 3 11 12 9
24 24 19 24 -9 0 -19 4 -23 18 -18 14 5 14 3 -3 -10 -15 -12 -17 -18 -7 -29 6
-8 9 -18 6 -21 -4 -3 -8 -28 -10 -54 -2 -26 -6 -72 -8 -101 -5 -63 -7 -66 -40
-58 -24 6 -25 9 -20 56 2 29 0 50 -5 50 -5 0 -7 20 -5 45 3 25 2 45 -3 45 -5
0 -7 30 -5 67 4 106 7 131 15 139 4 4 7 27 7 50 0 36 3 42 17 37 11 -4 14 -3
9 5 -5 8 -2 10 8 6 24 -9 20 20 -9 62 -14 20 -25 42 -25 48 0 7 3 7 8 -1 5 -8
13 -9 22 -3 13 8 12 10 -2 10 -21 0 -23 11 -6 28 9 9 9 12 0 12 -7 0 -12 8
-12 17 0 16 -1 16 -17 0 -16 -16 -16 -19 -3 -28 11 -8 12 -12 3 -16 -7 -2 -13
-16 -13 -29 0 -13 -4 -24 -10 -24 -16 0 -11 -27 6 -34 14 -5 14 -8 -1 -22 -9
-9 -14 -23 -11 -30 3 -8 9 -21 12 -29 13 -31 -12 -14 -31 22 -15 27 -17 37 -7
41 6 2 12 11 12 20 -1 15 -2 15 -14 0 -7 -10 -18 -18 -25 -18 -13 0 -15 47 -3
52 5 2 12 16 16 31 7 28 6 28 -26 22 -60 -13 -123 -17 -115 -9 4 5 36 24 69
44 33 19 64 42 68 50 4 8 12 25 19 38 10 19 9 27 -1 40 -11 13 -11 15 4 9 18
-7 41 14 37 35 -4 17 30 88 42 88 5 0 9 10 9 23 -1 21 -1 22 -15 3 -14 -19
-15 -19 -15 6 0 15 4 30 10 33 5 3 14 25 21 48 13 50 47 109 59 102 5 -3 11
-1 15 5 15 24 66 -1 57 -28 -3 -10 5 -9 34 3 50 21 84 43 84 55 0 5 6 7 14 4
24 -9 58 15 51 35 -4 13 1 20 14 24 25 6 53 68 37 80 -7 6 -5 7 5 4 22 -7 35
3 43 33 3 14 3 19 0 13 -3 -7 -10 -13 -15 -13 -9 0 -1 28 15 48 8 11 12 9 18
-9 5 -12 7 -34 4 -48z m1014 65 c0 -3 -4 -8 -10 -11 -5 -3 -10 -1 -10 4 0 6 5
11 10 11 6 0 10 -2 10 -4z m-281 -18 c-1 -7 3 -26 10 -43 12 -29 13 -29 27
-10 13 17 16 18 24 5 8 -12 13 -13 29 -3 23 14 35 5 19 -14 -6 -8 -7 -13 -2
-11 12 4 15 -12 8 -36 -4 -13 0 -24 12 -33 17 -13 18 -16 4 -41 -9 -15 -32
-36 -51 -47 -20 -11 -34 -26 -32 -32 3 -7 0 -13 -5 -13 -6 0 -12 5 -14 12 -3
7 -22 -4 -47 -29 -48 -46 -102 -65 -170 -60 -48 3 -60 16 -37 39 13 13 12 17
-6 32 -16 14 -17 20 -7 32 10 12 9 13 -4 8 -24 -9 -41 41 -30 86 6 27 13 34
28 32 11 -2 22 -7 25 -10 3 -4 13 -11 23 -17 23 -12 19 -30 -6 -29 -10 0 -16
-5 -13 -11 2 -7 8 -33 11 -59 5 -28 12 -46 20 -46 27 0 47 13 56 36 4 13 15
24 23 24 8 0 29 27 47 60 17 33 35 60 40 60 4 0 15 8 25 18 17 16 16 17 -12
22 -24 5 -29 10 -29 33 1 19 -3 26 -12 23 -7 -3 -13 2 -13 10 0 8 4 13 9 9 5
-3 12 -1 16 5 9 14 36 12 34 -2z m-694 -8 c-3 -5 -11 -10 -16 -10 -6 0 -7 5
-4 10 3 6 11 10 16 10 6 0 7 -4 4 -10z m1155 0 c0 -5 -4 -10 -10 -10 -5 0 -10
5 -10 10 0 6 5 10 10 10 6 0 10 -4 10 -10z m-720 -10 c0 -5 -4 -10 -10 -10 -5
0 -10 5 -10 10 0 6 5 10 10 10 6 0 10 -4 10 -10z m340 0 c0 -5 -7 -10 -16 -10
-8 0 -12 5 -9 10 3 6 10 10 16 10 5 0 9 -4 9 -10z m342 -12 c-7 -7 -12 -8 -12
-2 0 6 3 14 7 17 3 4 9 5 12 2 2 -3 -1 -11 -7 -17z m-597 2 c3 -5 1 -10 -4
-10 -6 0 -11 5 -11 10 0 6 2 10 4 10 3 0 8 -4 11 -10z m-365 -45 c0 -8 -4 -15
-10 -15 -5 0 -10 7 -10 15 0 8 5 15 10 15 6 0 10 -7 10 -15z m369 1 c7 -1 18
-10 23 -19 5 -10 14 -15 19 -11 5 3 16 0 25 -6 18 -16 1 -40 -28 -40 -15 0
-18 5 -13 19 7 22 -27 47 -46 35 -6 -4 -15 0 -20 7 -14 22 -10 32 9 24 9 -4
23 -8 31 -9z m481 4 c0 -5 -4 -10 -10 -10 -5 0 -10 5 -10 10 0 6 5 10 10 10 6
0 10 -4 10 -10z m192 -57 c4 -30 -17 -73 -36 -73 -6 0 -16 10 -21 23 -9 18 -6
27 15 48 33 34 38 35 42 2z m-672 -13 c0 -5 -4 -10 -10 -10 -5 0 -10 5 -10 10
0 6 5 10 10 10 6 0 10 -4 10 -10z m820 -20 c0 -5 -4 -10 -10 -10 -5 0 -10 5
-10 10 0 6 5 10 10 10 6 0 10 -4 10 -10z m-454 -107 c-8 -8 -36 5 -36 17 0 7
6 7 21 0 11 -7 18 -14 15 -17z m322 -16 c4 -20 -25 -34 -40 -19 -15 15 -1 44
19 40 10 -2 19 -11 21 -21z m-198 -27 c0 -5 -5 -10 -11 -10 -5 0 -7 5 -4 10 3
6 8 10 11 10 2 0 4 -4 4 -10z m-1060 -20 c0 -5 -4 -10 -10 -10 -5 0 -10 5 -10
10 0 6 5 10 10 10 6 0 10 -4 10 -10z m-660 -14 c0 -3 -4 -8 -10 -11 -5 -3 -10
-1 -10 4 0 6 5 11 10 11 6 0 10 -2 10 -4z m600 -26 c0 -5 -2 -10 -4 -10 -3 0
-8 5 -11 10 -3 6 -1 10 4 10 6 0 11 -4 11 -10z m290 -35 c0 -8 -4 -15 -9 -15
-13 0 -22 16 -14 24 11 11 23 6 23 -9z m-170 -5 c0 -5 -4 -10 -10 -10 -5 0
-10 5 -10 10 0 6 5 10 10 10 6 0 10 -4 10 -10z m744 -9 c10 -11 24 -17 32 -14
24 9 14 -11 -17 -36 -17 -13 -33 -20 -37 -17 -3 4 0 11 8 17 13 8 13 10 0 19
-8 5 -22 10 -30 10 -12 1 -12 3 2 14 10 7 15 16 11 19 -3 4 -2 7 4 7 5 0 18
-9 27 -19z m-993 -64 c-11 -11 -25 28 -15 45 5 7 10 3 16 -12 5 -14 5 -27 -1
-33z m1194 23 c3 -5 1 -10 -4 -10 -6 0 -11 5 -11 10 0 6 2 10 4 10 3 0 8 -4
11 -10z m-555 -21 c0 -5 -7 -9 -15 -9 -15 0 -20 12 -9 23 8 8 24 -1 24 -14z
m-940 -9 c0 -11 -7 -20 -15 -20 -18 0 -19 12 -3 28 16 16 18 15 18 -8z m-220
-16 c0 -8 -4 -14 -10 -14 -5 0 -10 9 -10 21 0 11 5 17 10 14 6 -3 10 -13 10
-21z m590 16 c0 -5 -4 -10 -10 -10 -5 0 -10 5 -10 10 0 6 5 10 10 10 6 0 10
-4 10 -10z m1125 0 c3 -5 1 -10 -4 -10 -6 0 -11 5 -11 10 0 6 2 10 4 10 3 0 8
-4 11 -10z m-390 -20 c3 -5 1 -10 -4 -10 -6 0 -11 5 -11 10 0 6 2 10 4 10 3 0
8 -4 11 -10z m207 -62 c33 -31 23 -43 -29 -33 -29 5 -38 3 -50 -15 -8 -11 -19
-18 -24 -15 -5 4 -9 1 -9 -4 0 -6 -4 -11 -10 -11 -5 0 -10 7 -10 15 0 8 3 14
8 14 24 -4 32 4 32 35 0 19 4 37 9 40 5 3 7 16 4 29 -6 22 -6 22 23 -3 15 -14
41 -37 56 -52z m-812 32 c0 -5 -2 -10 -4 -10 -3 0 -8 5 -11 10 -3 6 -1 10 4
10 6 0 11 -4 11 -10z m-260 -80 c0 -19 -11 -26 -23 -14 -8 8 3 34 14 34 5 0 9
-9 9 -20z m-50 2 c0 -13 -12 -22 -22 -16 -10 6 -1 24 13 24 5 0 9 -4 9 -8z
m130 -36 c0 -8 -6 -19 -14 -26 -8 -6 -13 -17 -10 -23 2 -7 -6 -17 -18 -22 -23
-10 -27 -46 -7 -53 15 -6 10 -22 -6 -22 -9 0 -20 12 -26 28 -13 34 6 103 27
95 8 -3 18 6 25 21 12 25 29 27 29 2z m-370 10 c0 -3 -4 -8 -10 -11 -5 -3 -10
-1 -10 4 0 6 5 11 10 11 6 0 10 -2 10 -4z m1424 -15 c8 -12 -14 -27 -43 -29
-23 -1 -23 -1 -5 18 21 21 40 25 48 11z m-974 -11 c0 -5 -4 -10 -10 -10 -5 0
-10 5 -10 10 0 6 5 10 10 10 6 0 10 -4 10 -10z m850 -6 c0 -8 -4 -12 -10 -9
-5 3 -10 10 -10 16 0 5 5 9 10 9 6 0 10 -7 10 -16z m210 -4 c0 -5 -7 -10 -16
-10 -8 0 -12 5 -9 10 3 6 10 10 16 10 5 0 9 -4 9 -10z m-1261 -59 c-15 -5 -22
6 -14 19 6 9 10 9 16 -1 5 -8 4 -15 -2 -18z m256 -1 c3 -5 1 -10 -4 -10 -6 0
-11 5 -11 10 0 6 2 10 4 10 3 0 8 -4 11 -10z m-785 -20 c0 -5 -4 -10 -10 -10
-5 0 -10 5 -10 10 0 6 5 10 10 10 6 0 10 -4 10 -10z m756 -12 c-8 -26 -34
-131 -41 -169 -6 -28 24 -66 32 -41 6 17 33 15 33 -2 0 -8 -7 -16 -15 -20 -8
-3 -15 -16 -15 -30 0 -13 -7 -26 -15 -30 -8 -3 -15 -17 -15 -31 0 -18 -5 -25
-20 -25 -22 0 -25 -21 -14 -79 6 -27 9 -30 33 -24 32 7 24 -3 -26 -33 -37 -22
-37 -22 -13 -29 14 -3 36 -4 50 -3 22 3 25 -1 25 -29 0 -17 3 -29 7 -26 11 6
10 81 -1 88 -5 3 -12 1 -16 -5 -8 -13 -35 -13 -35 0 0 6 6 10 14 10 22 0 31
22 14 34 -9 7 -16 28 -16 52 -1 39 1 42 36 52 44 14 54 7 23 -14 -15 -11 -21
-23 -18 -35 3 -11 1 -17 -4 -13 -10 6 -11 2 -3 -20 3 -8 12 -12 20 -9 8 3 14
1 14 -5 0 -6 -6 -13 -12 -15 -10 -4 -10 -6 0 -6 7 -1 15 7 18 17 12 41 50 103
65 107 9 3 17 16 17 28 1 12 4 37 8 55 5 26 11 32 33 32 l26 1 -24 19 c-27 23
-15 32 40 28 39 -3 64 -30 56 -59 -3 -12 2 -28 13 -39 10 -10 17 -27 16 -37
-2 -10 -1 -12 1 -5 3 6 8 12 13 12 4 0 11 19 15 43 11 64 18 72 63 68 24 -1
43 3 48 10 5 9 2 10 -9 6 -11 -4 -14 -2 -10 9 7 18 6 18 59 -11 24 -13 44 -20
44 -15 0 6 3 10 8 10 15 0 12 -101 -3 -116 -17 -18 -22 -144 -5 -144 6 0 10 4
10 9 0 5 20 7 44 6 39 -3 45 0 57 23 13 26 28 42 39 42 7 0 27 -50 33 -82 2
-16 1 -28 -4 -28 -8 0 -16 -32 -24 -98 -5 -40 -4 -42 14 -32 24 12 31 2 21
-26 -17 -45 -231 -108 -425 -125 -144 -13 -185 -6 -185 31 0 11 -7 23 -15 26
-11 5 -12 11 -5 24 16 29 12 32 -21 15 -26 -14 -30 -21 -25 -42 5 -18 3 -23
-6 -18 -7 4 -2 -3 11 -14 22 -20 22 -21 3 -21 -12 0 -23 4 -26 9 -3 5 -16 7
-27 4 -19 -5 -21 -3 -14 28 4 19 11 39 16 45 6 8 4 14 -6 18 -8 3 -15 13 -15
23 -1 10 -7 29 -15 43 -11 20 -14 21 -15 7 0 -10 -7 -20 -15 -24 -9 -3 -23
-19 -31 -35 -37 -71 -85 -91 -80 -33 2 31 12 48 53 93 11 11 10 16 -2 29 -10
10 -13 23 -9 37 4 11 8 41 9 66 1 51 10 70 31 70 15 0 17 8 14 54 -1 20 5 35
22 48 l23 19 -22 -6 c-24 -7 -26 -4 -24 50 l0 30 -10 -30 c-5 -16 -7 -38 -5
-47 2 -10 0 -21 -5 -24 -8 -5 -13 30 -10 68 1 9 -3 19 -9 23 -5 3 -10 17 -10
30 0 17 6 25 22 27 12 2 23 9 26 16 3 11 0 12 -17 3 -11 -7 -21 -10 -22 -9 0
2 -1 18 -2 36 -2 38 21 57 63 54 16 -2 34 7 50 22 31 31 34 31 26 4z m354 2
c0 -5 -4 -10 -10 -10 -5 0 -10 5 -10 10 0 6 5 10 10 10 6 0 10 -4 10 -10z
m940 -5 c7 -8 8 -15 2 -15 -5 0 -15 7 -22 15 -7 8 -8 15 -2 15 5 0 15 -7 22
-15z m-960 -35 c0 -5 -4 -10 -10 -10 -5 0 -10 5 -10 10 0 6 5 10 10 10 6 0 10
-4 10 -10z m830 -11 c0 -5 -7 -9 -15 -9 -15 0 -20 12 -9 23 8 8 24 -1 24 -14z
m-1370 1 c0 -5 -5 -10 -11 -10 -5 0 -7 5 -4 10 3 6 8 10 11 10 2 0 4 -4 4 -10z
m471 -13 c-13 -13 -26 -3 -16 12 3 6 11 8 17 5 6 -4 6 -10 -1 -17z m389 -2 c0
-8 -4 -15 -10 -15 -5 0 -10 7 -10 15 0 8 5 15 10 15 6 0 10 -7 10 -15z m630
-20 c9 -11 10 -19 4 -23 -6 -4 -14 -16 -19 -27 -8 -17 -10 -15 -13 14 -2 23
-10 35 -23 38 -22 6 -25 19 -6 26 15 5 39 -6 57 -28z m-85 -25 c-24 -26 -53
-34 -70 -20 -29 24 -18 31 59 37 28 2 28 2 11 -17z m-755 0 c0 -5 -4 -10 -10
-10 -5 0 -10 5 -10 10 0 6 5 10 10 10 6 0 10 -4 10 -10z m230 -10 c0 -11 -7
-20 -15 -20 -18 0 -19 12 -3 28 16 16 18 15 18 -8z m-1212 4 c22 -6 32 -34 11
-34 -17 0 -49 20 -49 30 0 11 6 12 38 4z m1352 -14 c0 -5 -4 -10 -10 -10 -5 0
-10 5 -10 10 0 6 5 10 10 10 6 0 10 -4 10 -10z m-150 -30 c0 -5 -4 -10 -10
-10 -5 0 -10 5 -10 10 0 6 5 10 10 10 6 0 10 -4 10 -10z m-40 -49 c9 -2 -25
-21 -37 -21 -7 0 -13 7 -13 15 0 10 7 14 23 11 12 -3 24 -5 27 -5z m-1399 -23
c-5 -13 -6 -39 -4 -58 4 -33 3 -34 -11 -16 -25 31 -18 96 10 96 10 0 11 -6 5
-22z m1443 -23 c4 -10 -1 -15 -14 -15 -11 0 -20 7 -20 15 0 8 6 15 14 15 8 0
16 -7 20 -15z m-634 -35 c0 -5 -7 -10 -15 -10 -8 0 -15 5 -15 10 0 6 7 10 15
10 8 0 15 -4 15 -10z m630 -5 c0 -8 -4 -15 -10 -15 -5 0 -10 7 -10 15 0 8 5
15 10 15 6 0 10 -7 10 -15z m-570 -16 c0 -11 -4 -17 -10 -14 -5 3 -10 13 -10
21 0 8 5 14 10 14 6 0 10 -9 10 -21z m610 11 c0 -5 -4 -10 -10 -10 -5 0 -10 5
-10 10 0 6 5 10 10 10 6 0 10 -4 10 -10z m-852 -22 c7 -7 12 -17 12 -22 0 -6
-5 -4 -10 4 -8 13 -11 13 -22 1 -10 -11 -10 -14 0 -18 14 -5 17 -23 3 -23 -13
0 -22 30 -16 51 7 22 16 24 33 7z m1152 2 c0 -5 -4 -10 -10 -10 -5 0 -10 5
-10 10 0 6 5 10 10 10 6 0 10 -4 10 -10z m-225 -40 c0 -22 -39 -19 -43 3 -3
15 1 18 20 15 12 -2 23 -10 23 -18z m-1215 -40 c0 -5 -5 -10 -11 -10 -5 0 -7
5 -4 10 3 6 8 10 11 10 2 0 4 -4 4 -10z m280 6 c0 -3 -4 -8 -10 -11 -5 -3 -10
-1 -10 4 0 6 5 11 10 11 6 0 10 -2 10 -4z m760 0 c0 -3 -4 -8 -10 -11 -5 -3
-10 -1 -10 4 0 6 5 11 10 11 6 0 10 -2 10 -4z m328 -43 c-2 -13 5 -19 25 -21
15 -2 27 -6 27 -10 0 -14 -38 -31 -57 -26 -15 4 -18 12 -15 40 2 19 8 34 14
34 5 0 8 -8 6 -17z m-1098 -33 c0 -5 -2 -10 -4 -10 -3 0 -8 5 -11 10 -3 6 -1
10 4 10 6 0 11 -4 11 -10z m925 -90 c-3 -5 -10 -10 -16 -10 -5 0 -9 5 -9 10 0
6 7 10 16 10 8 0 12 -4 9 -10z m-805 -60 c0 -5 -4 -10 -10 -10 -5 0 -10 5 -10
10 0 6 5 10 10 10 6 0 10 -4 10 -10z m100 -70 c0 -5 -4 -10 -10 -10 -5 0 -10
5 -10 10 0 6 5 10 10 10 6 0 10 -4 10 -10z"/>
<path d="M2130 2064 c-11 -12 -10 -18 3 -32 16 -15 18 -15 33 0 19 18 12 48
-9 48 -8 0 -20 -7 -27 -16z"/>
<path d="M214 1575 c-3 -7 -14 -11 -25 -8 -14 4 -19 0 -19 -15 0 -26 8 -31 96
-62 l70 -26 18 24 c10 13 15 26 11 30 -4 4 -10 2 -12 -4 -3 -9 -10 -9 -28 0
-14 6 -25 14 -25 19 0 4 -7 7 -15 7 -8 0 -15 6 -15 13 0 6 -12 17 -26 24 -20
9 -26 9 -30 -2z"/>
<path d="M400 1450 c0 -5 5 -10 10 -10 6 0 10 5 10 10 0 6 -4 10 -10 10 -5 0
-10 -4 -10 -10z"/>
<path d="M787 1173 c-4 -3 -7 -13 -7 -22 1 -13 3 -13 11 2 11 19 8 33 -4 20z"/>
<path d="M1350 539 c0 -5 5 -7 10 -4 6 3 10 8 10 11 0 2 -4 4 -10 4 -5 0 -10
-5 -10 -11z"/>
</g>
</svg>
